<svg width="122" height="118" viewBox="0 0 122 118" fill="none" xmlns="http://www.w3.org/2000/svg">
<path fill-rule="evenodd" clip-rule="evenodd" d="M21.6344 82.396C21.6344 82.396 21.6343 82.3962 21.7652 82.4695C21.8366 82.6015 21.8367 82.6014 21.8367 82.6014L21.844 82.5974L21.8665 82.5854L21.955 82.538C22.0329 82.4966 22.1478 82.4358 22.2956 82.3586C22.5911 82.2043 23.0179 81.9843 23.543 81.7224C24.5932 81.1984 26.0355 80.5065 27.6044 79.8347C29.1738 79.1627 30.8669 78.512 32.4194 78.0691C33.9776 77.6247 35.3731 77.396 36.3568 77.5497L36.4032 77.2533C35.3506 77.0888 33.901 77.3345 32.3371 77.7806C30.7675 78.2284 29.0615 78.8844 27.4863 79.559C25.9105 80.2337 24.4627 80.9282 23.409 81.4539C22.8821 81.7168 22.4536 81.9376 22.1567 82.0927C22.1499 82.0963 22.1431 82.0998 22.1365 82.1033C22.1815 82.0197 22.2322 81.9251 22.288 81.8203C22.5323 81.3612 22.8735 80.7058 23.2619 79.9194C24.0385 78.3474 25.0046 76.2497 25.7602 74.1523C26.5138 72.0601 27.0654 69.9485 26.9968 68.3559C26.9625 67.5585 26.7721 66.8708 26.3531 66.3831C25.9294 65.8899 25.2921 65.6241 24.4169 65.6326L24.4198 65.9326C25.2294 65.9247 25.7729 66.1681 26.1255 66.5786C26.4828 66.9944 26.6642 67.6048 26.6971 68.3687C26.7629 69.8987 26.2299 71.963 25.4779 74.0507C24.7277 76.1332 23.767 78.2196 22.993 79.7866C22.6061 80.5697 22.2663 81.2225 22.0232 81.6794C21.9016 81.9078 21.8043 82.0872 21.7374 82.2094C21.704 82.2705 21.6782 82.3173 21.6607 82.3488L21.6409 82.3844L21.6344 82.396ZM21.7652 82.4695L21.8367 82.6014L21.381 82.848L21.6344 82.396L21.7652 82.4695Z" fill="white"/>
<path fill-rule="evenodd" clip-rule="evenodd" d="M60.0278 46.1121C47.1443 53.0559 35.6464 62.8129 28.6955 74.0641L28.9507 74.2218C35.867 63.0266 47.3198 53.3021 60.1701 46.3762C73.0205 39.4502 87.2546 35.3301 99.7244 35.3301V35.0301C87.1942 35.0301 72.9113 39.1683 60.0278 46.1121Z" fill="white"/>
</svg>
