<svg width="188" height="60" viewBox="0 0 188 60" fill="none" xmlns="http://www.w3.org/2000/svg">
<path d="M91.6469 1.54128C117.56 -0.609396 141.268 0.670592 158.646 4.46679C167.338 6.36558 174.417 8.88819 179.393 11.9052C184.38 14.9293 187.16 18.3884 187.471 22.1354C187.782 25.8825 185.61 29.7533 181.19 33.5583C176.78 37.3542 170.213 41.0085 161.953 44.3142C145.439 50.9232 122.266 56.0941 96.353 58.2448C70.4398 60.3954 46.7317 59.1155 29.3542 55.3192C20.6625 53.4205 13.5831 50.8987 8.60738 47.8818C3.61992 44.8577 0.840355 41.3977 0.529364 37.6507C0.218483 33.9036 2.38969 30.0336 6.81027 26.2287C11.2205 22.4328 17.7872 18.7776 26.047 15.4719C42.5609 8.86286 65.7337 3.69196 91.6469 1.54128Z" stroke="white"/>
</svg>
