<svg width="895" height="572" viewBox="0 0 895 572" fill="none" xmlns="http://www.w3.org/2000/svg">
<path d="M584 0.338379C540.333 47.8384 454.8 169.838 462 277.838" stroke="url(#paint0_linear_2001_2)"/>
<path d="M522.5 17.3384C478.833 64.8384 445.8 179.338 453 287.338" stroke="url(#paint1_linear_2001_2)"/>
<path d="M471 15.8384C452 81.8384 436.5 253.338 436.5 307.338" stroke="url(#paint2_linear_2001_2)"/>
<path d="M303.5 9.83838C347.167 57.3384 428.2 202.338 421 310.338" stroke="url(#paint3_linear_2001_2)"/>
<path d="M365 9.83838C408.667 57.3384 437.2 211.838 430 319.838" stroke="url(#paint4_linear_2001_2)"/>
<path d="M414 12.8384C433.253 85.1705 435 266.658 435 325.838" stroke="url(#paint5_linear_2001_2)"/>
<ellipse cx="452" cy="406.838" rx="271" ry="165" fill="url(#paint6_radial_2001_2)"/>
<circle cx="440" cy="355.838" r="90" fill="url(#paint7_linear_2001_2)"/>
<g filter="url(#filter0_d_2001_2)">
<path fill-rule="evenodd" clip-rule="evenodd" d="M478.508 315.729C478.508 317.978 476.685 319.801 474.436 319.801H406.436C404.187 319.801 402.364 317.978 402.364 315.729C402.364 313.48 404.187 311.656 406.436 311.656H474.436C476.685 311.656 478.508 313.48 478.508 315.729Z" fill="white"/>
<path fill-rule="evenodd" clip-rule="evenodd" d="M478.508 397.584C478.508 399.833 476.685 401.656 474.436 401.656H406.436C404.187 401.656 402.364 399.833 402.364 397.584C402.364 395.335 404.187 393.511 406.436 393.511H474.436C476.685 393.511 478.508 395.335 478.508 397.584Z" fill="white"/>
<path d="M449.002 315.729L417.593 355.705L449.002 398.536" stroke="white" stroke-width="8"/>
</g>
<path d="M440.5 275.338C562.105 275.338 672.179 290.389 751.835 314.71C791.666 326.872 823.863 341.344 846.091 357.39C868.331 373.445 880.5 391.006 880.5 409.338C880.5 427.671 868.331 445.232 846.091 461.287C823.863 477.333 791.666 491.805 751.835 503.966C672.179 528.288 562.105 543.338 440.5 543.338C318.895 543.338 208.821 528.288 129.165 503.966C89.3343 491.805 57.1374 477.333 34.9092 461.287C12.6694 445.232 0.5 427.671 0.5 409.338C0.5 391.006 12.6694 373.445 34.9092 357.39C57.1374 341.344 89.3343 326.872 129.165 314.71C208.821 290.389 318.895 275.338 440.5 275.338Z" stroke="url(#paint8_linear_2001_2)"/>
<path d="M445 275.338C550.445 275.338 645.887 290.388 714.949 314.705C749.482 326.864 777.394 341.33 796.661 357.37C815.931 373.411 826.5 390.975 826.5 409.338C826.5 427.702 815.931 445.265 796.661 461.307C777.394 477.346 749.482 491.813 714.949 503.972C645.887 528.289 550.445 543.338 445 543.338C339.555 543.338 244.113 528.289 175.051 503.972C140.518 491.813 112.606 477.346 93.3389 461.307C74.0685 445.265 63.5 427.702 63.5 409.338C63.5 390.975 74.0685 373.411 93.3389 357.37C112.606 341.33 140.518 326.864 175.051 314.705C244.113 290.388 339.555 275.338 445 275.338Z" stroke="url(#paint9_linear_2001_2)"/>
<path d="M455.5 275.338C551.414 275.338 638.225 290.386 701.039 314.699C732.448 326.856 757.832 341.319 775.354 357.354C792.877 373.389 802.5 390.956 802.5 409.338C802.5 427.721 792.877 445.288 775.354 461.323C757.832 477.358 732.448 491.821 701.039 503.978C638.225 528.29 551.414 543.338 455.5 543.338C359.586 543.338 272.775 528.29 209.961 503.978C178.552 491.821 153.168 477.358 135.646 461.323C118.123 445.288 108.5 427.721 108.5 409.338C108.5 390.956 118.123 373.389 135.646 357.354C153.168 341.319 178.552 326.856 209.961 314.699C272.775 290.386 359.586 275.338 455.5 275.338Z" stroke="url(#paint10_linear_2001_2)"/>
<path d="M445 203.338C529.275 203.338 597.5 264.724 597.5 340.338C597.5 415.952 529.275 477.338 445 477.338C360.725 477.338 292.5 415.952 292.5 340.338C292.5 264.724 360.725 203.338 445 203.338Z" stroke="url(#paint11_linear_2001_2)"/>
<path d="M444.5 294.338C485.162 294.338 521.951 303.502 548.556 318.292C575.177 333.092 591.5 353.459 591.5 375.838C591.5 398.218 575.177 418.584 548.556 433.384C521.951 448.175 485.162 457.338 444.5 457.338C403.838 457.338 367.049 448.175 340.444 433.384C313.823 418.584 297.5 398.218 297.5 375.838C297.5 353.459 313.823 333.092 340.444 318.292C367.049 303.502 403.838 294.338 444.5 294.338Z" stroke="url(#paint12_linear_2001_2)"/>
<path d="M853.093 363.587C853.093 362.035 851.426 360.563 848.87 359.651C849.46 356.614 849.198 354.197 848.043 353.422C847.763 353.239 847.446 353.147 847.125 353.156V354.22C847.314 354.22 847.465 354.264 847.593 354.345C848.149 354.718 848.391 356.136 848.203 357.96C848.158 358.409 848.084 358.882 847.994 359.364C847.138 359.124 846.269 358.95 845.393 358.844C844.872 358.005 844.302 357.207 843.69 356.456C845.025 355.009 846.278 354.216 847.131 354.216V353.151C846.004 353.151 844.529 354.087 843.038 355.711C841.548 354.098 840.073 353.17 838.947 353.17V354.235C839.795 354.235 841.052 355.024 842.388 356.461C841.814 357.164 841.241 357.96 840.696 358.844C839.818 358.949 838.948 359.124 838.091 359.369C838.001 358.912 837.929 358.45 837.878 357.985C837.685 356.159 837.923 354.741 838.476 354.364C838.598 354.279 838.758 354.24 838.947 354.24V353.175C838.603 353.175 838.291 353.261 838.022 353.442C836.87 354.216 836.613 356.628 837.206 359.656C834.659 360.574 833 362.04 833 363.587C833 365.139 834.667 366.611 837.223 367.522C836.633 370.56 836.895 372.977 838.05 373.751C838.316 373.932 838.628 374.018 838.971 374.018C840.098 374.018 841.572 373.082 843.063 371.458C844.554 373.072 846.028 373.999 847.155 373.999C847.478 374.007 847.797 373.914 848.08 373.731C849.231 372.958 849.489 370.546 848.895 367.518C851.435 366.606 853.093 365.135 853.093 363.587ZM847.76 360.401C847.601 361.04 847.417 361.669 847.208 362.288C846.865 361.511 846.489 360.755 846.081 360.023C846.663 360.124 847.224 360.248 847.761 360.401H847.76ZM845.885 365.488C845.578 366.112 845.249 366.721 844.898 367.313C843.669 367.439 842.433 367.441 841.204 367.318C840.499 366.143 839.882 364.9 839.361 363.602C839.882 362.3 840.495 361.053 841.196 359.872C842.425 359.745 843.66 359.744 844.889 359.866C845.229 360.434 845.562 361.042 845.881 361.682C846.192 362.307 846.475 362.942 846.733 363.582C846.472 364.23 846.189 364.866 845.885 365.488V365.488ZM847.208 364.867C847.429 365.507 847.618 366.147 847.773 366.768C847.237 366.921 846.671 367.05 846.086 367.15C846.492 366.411 846.866 365.649 847.208 364.867V364.867ZM843.055 369.964C842.674 369.505 842.293 368.994 841.916 368.435C842.285 368.454 842.661 368.469 843.042 368.469C843.428 368.469 843.808 368.459 844.181 368.435C843.813 368.994 843.432 369.505 843.055 369.964ZM840.007 367.15C839.443 367.054 838.883 366.929 838.328 366.773C838.48 366.157 838.668 365.521 838.881 364.887C839.049 365.267 839.226 365.65 839.418 366.033C839.611 366.415 839.807 366.787 840.007 367.15ZM843.034 357.211C843.415 357.669 843.796 358.18 844.173 358.739C843.804 358.72 843.428 358.705 843.047 358.705C842.661 358.705 842.281 358.715 841.908 358.739C842.276 358.18 842.657 357.669 843.034 357.211ZM840.003 360.024C839.597 360.761 839.223 361.522 838.881 362.302C838.666 361.68 838.478 361.045 838.316 360.401C838.852 360.253 839.418 360.124 840.003 360.024ZM836.297 366.003C834.847 365.283 833.909 364.337 833.909 363.587C833.909 362.837 834.847 361.886 836.297 361.171C836.649 360.994 837.034 360.836 837.431 360.688C837.665 361.624 837.972 362.598 838.352 363.597C837.993 364.536 837.69 365.503 837.444 366.491C837.055 366.35 836.672 366.188 836.297 366.003V366.003ZM838.5 372.828C837.944 372.457 837.702 371.037 837.89 369.214C837.935 368.765 838.009 368.291 838.099 367.809C838.902 368.038 839.778 368.215 840.7 368.33C841.222 369.169 841.791 369.967 842.404 370.718C841.068 372.165 839.815 372.958 838.963 372.958C838.802 372.96 838.643 372.916 838.5 372.829V372.828ZM848.216 369.189C848.408 371.014 848.17 372.433 847.617 372.81C847.495 372.895 847.335 372.934 847.146 372.934C846.298 372.934 845.041 372.146 843.705 370.707C844.316 369.96 844.881 369.164 845.397 368.325C846.275 368.22 847.145 368.045 848.002 367.8C848.097 368.282 848.169 368.745 848.216 369.189V369.189ZM849.792 366.003C849.44 366.18 849.055 366.338 848.658 366.486C848.407 365.493 848.1 364.521 847.737 363.577C848.113 362.584 848.416 361.615 848.645 360.683C849.035 360.824 849.419 360.987 849.796 361.171C851.246 361.891 852.184 362.837 852.184 363.587C852.18 364.337 851.242 365.288 849.792 366.003V366.003Z" fill="url(#paint13_linear_2001_2)"/>
<path d="M843.042 365.77C843.539 365.77 844.015 365.54 844.366 365.13C844.717 364.721 844.914 364.165 844.914 363.586C844.914 363.007 844.717 362.452 844.366 362.043C844.015 361.633 843.539 361.403 843.042 361.403C842.546 361.403 842.07 361.633 841.719 362.043C841.368 362.452 841.17 363.007 841.17 363.586C841.17 364.165 841.368 364.721 841.719 365.13C842.07 365.54 842.546 365.77 843.042 365.77V365.77Z" fill="url(#paint14_linear_2001_2)"/>
<path d="M782.607 322.83H772.393C771.624 322.83 771 323.557 771 324.454V336.366C771 337.262 771.624 337.99 772.393 337.99H782.607C783.376 337.99 784 337.262 784 336.366V324.454C784 323.557 783.376 322.83 782.607 322.83ZM778.075 334.653C778.075 336.129 777.332 336.802 776.249 336.802C775.271 336.802 774.706 336.213 774.415 335.499L775.411 334.799C775.602 335.195 775.776 335.53 776.197 335.53C776.598 335.53 776.853 335.347 776.853 334.633V329.79H778.075V334.653V334.653ZM780.965 336.802C779.83 336.802 779.096 336.173 778.739 335.347L779.734 334.677C779.996 335.174 780.338 335.543 780.939 335.543C781.444 335.543 781.769 335.249 781.769 334.839C781.769 334.352 781.438 334.18 780.878 333.892L780.573 333.74C779.691 333.303 779.108 332.751 779.108 331.591C779.108 330.521 779.807 329.709 780.895 329.709C781.673 329.709 782.23 330.024 782.63 330.85L781.679 331.56C781.47 331.124 781.243 330.951 780.892 330.951C780.535 330.951 780.309 331.215 780.309 331.56C780.309 331.987 780.535 332.159 781.06 332.427L781.365 332.579C782.404 333.097 782.987 333.628 782.987 334.819C782.987 336.098 782.123 336.802 780.965 336.802V336.802Z" fill="url(#paint15_linear_2001_2)"/>
<path d="M886.996 427.787C886.756 427.787 886.513 427.708 886.302 427.558L884.092 425.953C883.763 425.725 883.924 425.646 884.031 425.602C884.472 425.413 884.561 425.373 885.03 425.043C885.081 425.008 885.145 425.021 885.195 425.061L886.893 426.296C886.953 426.34 887.039 426.34 887.097 426.296L893.711 421.609C893.772 421.565 893.811 421.477 893.811 421.39V412.016C893.811 411.923 893.772 411.84 893.707 411.791L887.097 407.109C887.036 407.065 886.953 407.065 886.893 407.109L880.286 411.796C880.221 411.84 880.182 411.928 880.182 412.02V421.39C880.182 421.477 880.221 421.565 880.286 421.605L882.098 422.889C883.082 423.491 883.684 422.783 883.684 422.067V412.816C883.684 412.684 883.77 412.583 883.877 412.583H884.715C884.819 412.583 884.909 412.684 884.909 412.816V422.071C884.909 423.68 884.192 424.604 882.95 424.604C882.567 424.604 882.266 424.604 881.428 424.094L879.695 422.867C879.265 422.563 879 421.996 879 421.385V412.016C879 411.409 879.265 410.837 879.695 410.534L886.302 405.847C886.721 405.557 887.276 405.557 887.691 405.847L894.305 410.538C894.735 410.842 895 411.409 895 412.02V421.39C895 421.996 894.735 422.563 894.305 422.871L887.691 427.558C887.48 427.708 887.24 427.787 886.996 427.787ZM892.336 418.549C892.336 416.795 891.369 416.329 889.338 415.999C887.283 415.665 887.075 415.494 887.075 414.904C887.075 414.416 887.251 413.766 888.773 413.766C890.13 413.766 890.631 414.126 890.839 415.252C890.857 415.357 890.936 415.436 891.025 415.436H891.885C891.938 415.436 891.988 415.41 892.024 415.362C892.06 415.313 892.078 415.247 892.074 415.181C891.942 413.242 890.893 412.341 888.773 412.341C886.885 412.341 885.761 413.317 885.761 414.957C885.761 416.733 886.882 417.226 888.69 417.446C890.857 417.705 891.025 418.096 891.025 418.62C891.025 419.525 890.431 419.912 889.038 419.912C887.286 419.912 886.903 419.371 886.774 418.303C886.76 418.189 886.681 418.105 886.585 418.105H885.729C885.621 418.105 885.539 418.211 885.539 418.338C885.539 419.706 886.144 421.337 889.041 421.337C891.132 421.332 892.336 420.317 892.336 418.549V418.549Z" fill="url(#paint16_linear_2001_2)"/>
<path fill-rule="evenodd" clip-rule="evenodd" d="M769.035 493.092C767.353 493.092 766 494.738 766 496.755C766 497.981 766.501 499.069 767.27 499.734C766.873 500.08 766.552 500.53 766.331 501.048C766.111 501.565 765.997 502.135 766 502.713C766 503.94 766.501 505.028 767.27 505.692C766.873 506.039 766.552 506.489 766.331 507.006C766.111 507.524 765.997 508.094 766 508.672C766 510.688 767.353 512.334 769.035 512.334C770.717 512.334 772.071 510.688 772.071 508.672V505.575C772.602 506.092 773.272 506.376 773.965 506.376C775.647 506.376 777 504.73 777 502.713C777.003 502.135 776.889 501.565 776.669 501.048C776.448 500.53 776.127 500.08 775.73 499.734C776.127 499.388 776.448 498.938 776.669 498.42C776.889 497.903 777.003 497.332 777 496.755C777 494.738 775.647 493.092 773.965 493.092H769.035V493.092ZM767.141 496.755C767.141 495.479 767.994 494.458 769.035 494.458H770.929V499.052H769.035C767.994 499.052 767.141 498.029 767.141 496.755V496.755ZM773.965 499.051H772.071V494.457H773.965C775.006 494.457 775.859 495.479 775.859 496.755C775.859 498.029 775.006 499.051 773.965 499.051ZM767.141 502.713C767.141 501.438 767.995 500.416 769.036 500.416H770.93V505.01H769.035C767.994 505.01 767.141 503.988 767.141 502.713H767.141ZM772.071 502.713C772.071 501.438 772.924 500.416 773.965 500.416C775.007 500.416 775.86 501.438 775.86 502.713C775.86 503.988 775.007 505.01 773.965 505.01C772.924 505.01 772.071 503.989 772.071 502.713H772.071ZM767.141 508.672C767.141 507.397 767.995 506.376 769.036 506.376H770.93V508.672C770.93 509.947 770.078 510.969 769.036 510.969C767.995 510.969 767.141 509.947 767.141 508.672Z" fill="url(#paint17_linear_2001_2)"/>
<path d="M837.334 425.454H828.256C827.01 425.454 826 426.632 826 428.085V438.275C826 439.728 827.01 440.906 828.256 440.906H837.334C838.58 440.906 839.591 439.728 839.591 438.275V428.085C839.591 426.632 838.58 425.454 837.334 425.454Z" fill="url(#paint18_linear_2001_2)"/>
<path d="M833.144 429.518L831.449 432.782L833.263 436.249C833.275 436.273 833.278 436.301 833.272 436.328C833.269 436.34 833.263 436.343 833.254 436.343L833.244 436.343L833.231 436.343C833.224 436.343 833.217 436.343 833.208 436.344H831.9L831.874 436.344C831.804 436.342 831.753 436.33 831.722 436.27C831.601 435.995 831.48 435.72 831.357 435.446C831.248 435.201 831.136 434.958 831.021 434.717L830.97 434.611C830.832 434.326 830.697 434.039 830.564 433.75H830.555C830.433 434.036 830.306 434.319 830.177 434.601C830.046 434.884 829.917 435.166 829.789 435.446C829.662 435.726 829.531 436.004 829.397 436.28C829.376 436.337 829.34 436.349 829.29 436.35L829.27 436.351H828.021L828.015 436.351L827.997 436.353C827.987 436.354 827.981 436.351 827.98 436.334C827.976 436.308 827.981 436.281 827.993 436.259L829.753 432.889L828.039 429.508C828.021 429.48 828.018 429.457 828.03 429.439C828.036 429.43 828.045 429.423 828.054 429.418C828.064 429.413 828.074 429.411 828.084 429.412H829.37C829.398 429.41 829.426 429.416 829.452 429.428C829.474 429.443 829.492 429.463 829.507 429.487C829.616 429.77 829.738 430.054 829.871 430.337C830.004 430.619 830.139 430.899 830.277 431.177C830.413 431.451 830.539 431.731 830.655 432.017H830.665C830.784 431.731 830.907 431.448 831.034 431.166C831.158 430.89 831.286 430.612 831.417 430.332C831.546 430.055 831.672 429.777 831.795 429.497C831.802 429.471 831.815 429.447 831.832 429.428C831.854 429.415 831.879 429.409 831.904 429.412H833.099C833.11 429.409 833.121 429.41 833.132 429.415C833.142 429.42 833.151 429.429 833.157 429.441C833.162 429.452 833.165 429.465 833.163 429.478C833.162 429.491 833.157 429.504 833.149 429.513L833.144 429.518L833.144 429.518ZM835.824 436.482L835.761 436.482C835.341 436.49 834.925 436.388 834.544 436.185C834.188 435.993 833.891 435.68 833.691 435.286C833.49 434.897 833.387 434.411 833.382 433.829L833.381 433.782C833.378 433.294 833.485 432.814 833.691 432.389C833.898 431.969 834.199 431.623 834.563 431.388L834.594 431.368C834.989 431.113 835.466 430.986 836.025 430.986L836.05 430.986L836.078 430.987L836.109 430.989L836.144 430.991L836.202 430.996L836.269 431.002L836.317 431.007V428.912C836.317 428.863 836.335 428.838 836.372 428.838H837.52C837.528 428.837 837.535 428.838 837.543 428.84C837.55 428.843 837.556 428.848 837.561 428.854C837.567 428.86 837.571 428.868 837.573 428.876C837.575 428.884 837.576 428.893 837.575 428.902V435.185C837.575 435.291 837.579 435.404 837.586 435.526L837.603 435.802L837.612 435.961C837.613 435.984 837.608 436.006 837.598 436.024C837.589 436.043 837.574 436.059 837.557 436.068C837.261 436.212 836.952 436.319 836.636 436.387C836.368 436.444 836.096 436.476 835.824 436.482V436.482ZM836.317 435.164V432.261C836.268 432.246 836.217 432.235 836.167 432.23C836.104 432.222 836.042 432.219 835.98 432.219C835.758 432.216 835.54 432.275 835.341 432.389C835.148 432.501 834.983 432.67 834.863 432.878C834.742 433.083 834.68 433.352 834.676 433.682L834.676 433.718C834.671 433.95 834.704 434.181 834.772 434.399C834.827 434.574 834.914 434.734 835.027 434.866C835.135 434.988 835.266 435.079 835.41 435.132C835.561 435.189 835.72 435.218 835.879 435.217C835.964 435.217 836.043 435.214 836.116 435.207C836.175 435.201 836.232 435.19 836.289 435.173L836.317 435.164V435.164Z" fill="black"/>
<path d="M723.624 336.283C724.693 335.567 725.759 334.846 726.831 334.137C727.849 333.465 729.046 334.085 729.277 335.394C729.41 336.151 729.121 336.968 728.535 337.367C726.613 338.673 724.689 339.973 722.755 341.254C722.156 341.651 721.54 341.578 720.994 341.092C720.44 340.599 720.265 339.918 720.395 339.127C720.544 338.524 720.883 338.121 721.346 337.819C722.112 337.321 722.865 336.796 723.624 336.283" fill="url(#paint19_linear_2001_2)"/>
<path d="M724.409 335.763C723.343 335.042 722.274 334.326 721.212 333.597C720.203 332.906 720.065 331.386 720.922 330.499C721.417 329.985 722.169 329.869 722.758 330.262C724.689 331.549 726.617 332.843 728.535 334.155C729.128 334.562 729.383 335.221 729.295 336.015C729.205 336.821 728.788 337.337 728.135 337.602C727.613 337.754 727.144 337.612 726.688 337.295C725.935 336.771 725.169 336.272 724.409 335.763" fill="url(#paint20_linear_2001_2)"/>
<path d="M714.693 335.253C714.009 335.706 713.325 336.158 712.641 336.613C712.242 336.879 711.846 337.154 711.444 337.415C710.635 337.942 709.673 337.633 709.214 336.705C708.776 335.82 709.028 334.671 709.807 334.141C711.714 332.843 713.625 331.555 715.543 330.281C716.131 329.891 716.741 329.94 717.285 330.407C717.86 330.9 718.047 331.593 717.919 332.406C717.839 332.603 717.791 332.834 717.671 332.989C717.476 333.241 717.255 333.482 717.008 333.66C716.246 334.208 715.466 334.724 714.693 335.253" fill="url(#paint21_linear_2001_2)"/>
<path d="M713.909 335.76C714.587 336.225 715.266 336.69 715.945 337.152C716.342 337.423 716.744 337.685 717.139 337.96C717.935 338.514 718.187 339.64 717.727 340.567C717.288 341.453 716.31 341.773 715.526 341.251C713.609 339.974 711.697 338.688 709.792 337.388C709.208 336.989 708.939 336.348 709.014 335.565C709.093 334.739 709.514 334.202 710.182 333.926C710.368 333.908 710.564 333.841 710.739 333.885C711.023 333.955 711.313 334.058 711.568 334.219C712.357 334.714 713.13 335.244 713.909 335.76" fill="url(#paint22_linear_2001_2)"/>
<path fill-rule="evenodd" clip-rule="evenodd" d="M127 395.133C123.134 395.133 120 399.049 120 403.88C120 408.71 123.134 412.626 127 412.626C130.866 412.626 134 408.71 134 403.88C134 399.049 130.866 395.133 127 395.133ZM127.082 408.995C124.825 408.995 122.998 406.706 122.998 403.88C122.998 401.053 124.825 398.764 127.082 398.764C128.184 398.764 129.106 399.273 129.813 400.098L128.661 401.539V401.536C128.233 401.025 127.689 400.762 127.082 400.762C125.734 400.762 124.639 402.188 124.639 403.877C124.639 405.564 125.734 406.994 127.082 406.994C128.304 406.994 129.136 406.118 129.308 404.915H127.082V402.92H130.923C130.974 403.263 131.002 403.62 131.002 403.995C131.002 406.918 129.44 408.995 127.082 408.995V408.995Z" fill="url(#paint23_linear_2001_2)"/>
<path d="M31.2117 463.814H33.101V464.752H32.0017V465.689H33.101V466.627H31.2117V463.814ZM33.4784 463.814H35.3685V464.63H34.2692V464.792H35.3685V466.668H33.4784V465.812H34.5777V465.648H33.4784V463.814ZM35.7466 463.814H37.6352V464.63H36.5359V464.792H37.6352V466.668H35.7466V465.812H36.8459V465.648H35.7466V463.814Z" fill="url(#paint24_linear_2001_2)"/>
<path fill-rule="evenodd" clip-rule="evenodd" d="M34.4935 484.146L29.4784 482.523L28 467.916H41L39.5223 482.522L34.4935 484.146ZM30.9228 474.528L31.0608 476.319H36.3886L36.2102 478.642L34.4957 479.183H34.4942L32.7826 478.644L32.6728 477.215H31.1294L31.3446 480.028L34.4935 481.047L37.6474 480.028L38.0317 475.009L38.0692 474.528L38.3466 470.901H30.6462L30.7863 472.693H36.6623L36.5222 474.528H30.9228V474.528Z" fill="url(#paint25_linear_2001_2)"/>
<path d="M187.501 302.468H198.501V315.945H187.501V302.468ZM187 316.575H199V301.838H187V316.575ZM194.86 307.09C194.86 307.04 194.875 307.015 194.92 307.015H195.705C195.745 307.015 195.765 307.034 195.765 307.09V312.059C195.765 312.109 195.755 312.135 195.705 312.135H194.931C194.881 312.135 194.866 312.103 194.866 312.053V307.09H194.86H194.86ZM194.805 305.661C194.805 305.491 194.859 305.327 194.955 305.207C195.05 305.086 195.18 305.019 195.315 305.019C195.45 305.019 195.58 305.086 195.676 305.207C195.771 305.327 195.825 305.491 195.825 305.661C195.83 305.748 195.82 305.836 195.795 305.917C195.771 305.999 195.733 306.073 195.683 306.134C195.634 306.195 195.574 306.242 195.509 306.271C195.444 306.3 195.374 306.311 195.305 306.303C195.238 306.309 195.17 306.296 195.107 306.265C195.044 306.235 194.986 306.187 194.939 306.126C194.892 306.065 194.855 305.992 194.832 305.912C194.809 305.832 194.8 305.746 194.806 305.661H194.805ZM192.555 309.163C192.415 308.461 192.084 306.94 191.96 306.203H191.95C191.845 306.94 191.581 308.187 191.371 309.163H192.555ZM191.165 310.183L190.77 312.072C190.76 312.122 190.745 312.135 190.695 312.135H189.961C189.911 312.135 189.901 312.116 189.911 312.041L191.331 305.779C191.365 305.609 191.382 305.433 191.381 305.257C191.381 305.213 191.396 305.194 191.421 305.194H192.471C192.506 305.194 192.521 305.206 192.531 305.257L194.121 312.052C194.131 312.102 194.121 312.134 194.081 312.134H193.251C193.211 312.134 193.186 312.121 193.176 312.08L192.766 310.184H191.166L191.165 310.183Z" fill="url(#paint26_linear_2001_2)"/>
<path fill-rule="evenodd" clip-rule="evenodd" d="M82 340.405C82 340.074 82.1107 339.757 82.3077 339.522C82.5047 339.288 82.7719 339.157 83.0505 339.157H93.5224C93.6604 339.156 93.7972 339.189 93.9248 339.251C94.0524 339.314 94.1684 339.406 94.2661 339.522C94.3638 339.638 94.4413 339.776 94.4941 339.927C94.5469 340.079 94.5741 340.241 94.574 340.405V352.852C94.5742 353.016 94.5471 353.179 94.4943 353.331C94.4416 353.482 94.3642 353.62 94.2665 353.736C94.1689 353.852 94.053 353.945 93.9254 354.007C93.7978 354.07 93.661 354.102 93.5229 354.102H83.0505C82.9125 354.102 82.7759 354.07 82.6484 354.007C82.5209 353.944 82.405 353.852 82.3075 353.736C82.2099 353.62 82.1326 353.483 82.0798 353.331C82.027 353.179 81.9999 353.017 82 352.853V340.405ZM86.977 344.855H88.6797V345.871C88.9254 345.287 89.5541 344.761 90.4989 344.761C92.3101 344.761 92.7393 345.925 92.7393 348.06V352.015H90.9064V348.547C90.9064 347.331 90.6606 346.644 90.0365 346.644C89.1706 346.644 88.8105 347.384 88.8105 348.547V352.015H86.977V344.855ZM83.8335 351.922H85.667V344.761H83.8335V351.922V351.922ZM85.9294 342.426C85.9328 342.612 85.9049 342.798 85.8472 342.971C85.7895 343.145 85.7032 343.303 85.5934 343.437C85.4836 343.57 85.3525 343.676 85.2078 343.748C85.063 343.821 84.9076 343.858 84.7506 343.858C84.5935 343.858 84.4381 343.821 84.2934 343.748C84.1486 343.676 84.0175 343.57 83.9077 343.437C83.7979 343.303 83.7116 343.145 83.6539 342.971C83.5962 342.798 83.5683 342.612 83.5718 342.426C83.5785 342.059 83.7057 341.711 83.926 341.455C84.1464 341.199 84.4423 341.055 84.7506 341.055C85.0588 341.055 85.3548 341.199 85.5751 341.455C85.7954 341.711 85.9226 342.059 85.9294 342.426V342.426Z" fill="url(#paint27_linear_2001_2)"/>
<path d="M140.754 473.268L142.232 475.664L149.714 473.268M132.979 491.927L137.027 487.354L134.591 484.333M140.14 473.268L137.977 475.52L141.616 475.677M131.731 473.269L132.507 475.109L136.79 475.416M134.023 482.81L137.187 475.991L128 475.415M134.391 483.24L137.38 486.95L140.676 483.217L141.698 476.263L137.682 476.025L134.391 483.24Z" fill="url(#paint28_linear_2001_2)"/>
<defs>
<filter id="filter0_d_2001_2" x="388.364" y="298.656" width="104.144" height="118" filterUnits="userSpaceOnUse" color-interpolation-filters="sRGB">
<feFlood flood-opacity="0" result="BackgroundImageFix"/>
<feColorMatrix in="SourceAlpha" type="matrix" values="0 0 0 0 0 0 0 0 0 0 0 0 0 0 0 0 0 0 127 0" result="hardAlpha"/>
<feOffset dy="1"/>
<feGaussianBlur stdDeviation="7"/>
<feComposite in2="hardAlpha" operator="out"/>
<feColorMatrix type="matrix" values="0 0 0 0 1 0 0 0 0 1 0 0 0 0 1 0 0 0 0.55 0"/>
<feBlend mode="normal" in2="BackgroundImageFix" result="effect1_dropShadow_2001_2"/>
<feBlend mode="normal" in="SourceGraphic" in2="effect1_dropShadow_2001_2" result="shape"/>
</filter>
<linearGradient id="paint0_linear_2001_2" x1="522.786" y1="0.338379" x2="522.786" y2="277.838" gradientUnits="userSpaceOnUse">
<stop stop-color="#3D1768"/>
<stop offset="1" stop-color="#3D1768" stop-opacity="0"/>
</linearGradient>
<linearGradient id="paint1_linear_2001_2" x1="487.256" y1="17.3384" x2="487.256" y2="287.338" gradientUnits="userSpaceOnUse">
<stop stop-color="#3D1768"/>
<stop offset="1" stop-color="#3D1768" stop-opacity="0"/>
</linearGradient>
<linearGradient id="paint2_linear_2001_2" x1="445.75" y1="32.8384" x2="445.75" y2="303.838" gradientUnits="userSpaceOnUse">
<stop stop-color="#3D1768"/>
<stop offset="1" stop-color="#3D1768" stop-opacity="0"/>
</linearGradient>
<linearGradient id="paint3_linear_2001_2" x1="367.252" y1="34.8384" x2="367.252" y2="310.338" gradientUnits="userSpaceOnUse">
<stop stop-color="#3D1768"/>
<stop offset="1" stop-color="#3D1768" stop-opacity="0"/>
</linearGradient>
<linearGradient id="paint4_linear_2001_2" x1="401.423" y1="32.8384" x2="401.423" y2="319.839" gradientUnits="userSpaceOnUse">
<stop stop-color="#3D1768"/>
<stop offset="1" stop-color="#3D1768" stop-opacity="0"/>
</linearGradient>
<linearGradient id="paint5_linear_2001_2" x1="437" y1="38.8384" x2="437" y2="335.838" gradientUnits="userSpaceOnUse">
<stop stop-color="#3D1768"/>
<stop offset="1" stop-color="#3D1768" stop-opacity="0"/>
</linearGradient>
<radialGradient id="paint6_radial_2001_2" cx="0" cy="0" r="1" gradientUnits="userSpaceOnUse" gradientTransform="translate(452 406.838) rotate(90) scale(165 271)">
<stop stop-color="#763CAC"/>
<stop offset="1" stop-color="#320F85" stop-opacity="0"/>
</radialGradient>
<linearGradient id="paint7_linear_2001_2" x1="440" y1="265.838" x2="440" y2="445.838" gradientUnits="userSpaceOnUse">
<stop stop-color="#301080" stop-opacity="0.6"/>
<stop offset="1" stop-color="#7840AD" stop-opacity="0.36"/>
</linearGradient>
<linearGradient id="paint8_linear_2001_2" x1="440.5" y1="274.838" x2="440.5" y2="543.838" gradientUnits="userSpaceOnUse">
<stop stop-opacity="0"/>
<stop offset="0.479167" stop-color="#763CAC"/>
</linearGradient>
<linearGradient id="paint9_linear_2001_2" x1="445" y1="274.838" x2="445" y2="543.838" gradientUnits="userSpaceOnUse">
<stop stop-opacity="0"/>
<stop offset="0.479167" stop-color="#763CAC"/>
</linearGradient>
<linearGradient id="paint10_linear_2001_2" x1="455.5" y1="274.838" x2="455.5" y2="543.838" gradientUnits="userSpaceOnUse">
<stop stop-opacity="0"/>
<stop offset="0.479167" stop-color="#763CAC"/>
</linearGradient>
<linearGradient id="paint11_linear_2001_2" x1="445" y1="202.838" x2="445" y2="477.838" gradientUnits="userSpaceOnUse">
<stop offset="0.197917" stop-opacity="0"/>
<stop offset="1" stop-color="#763CAC"/>
</linearGradient>
<linearGradient id="paint12_linear_2001_2" x1="444.5" y1="293.838" x2="444.5" y2="457.838" gradientUnits="userSpaceOnUse">
<stop offset="0.197917" stop-opacity="0"/>
<stop offset="1" stop-color="#763CAC"/>
</linearGradient>
<linearGradient id="paint13_linear_2001_2" x1="843.047" y1="353.151" x2="843.047" y2="374.018" gradientUnits="userSpaceOnUse">
<stop stop-color="#693B93" stop-opacity="0.53"/>
<stop offset="1" stop-color="#693B93"/>
</linearGradient>
<linearGradient id="paint14_linear_2001_2" x1="843.042" y1="361.403" x2="843.042" y2="365.77" gradientUnits="userSpaceOnUse">
<stop stop-color="#693B93" stop-opacity="0.53"/>
<stop offset="1" stop-color="#693B93"/>
</linearGradient>
<linearGradient id="paint15_linear_2001_2" x1="777.5" y1="322.83" x2="777.5" y2="337.99" gradientUnits="userSpaceOnUse">
<stop stop-color="#693B93" stop-opacity="0.53"/>
<stop offset="1" stop-color="#693B93"/>
</linearGradient>
<linearGradient id="paint16_linear_2001_2" x1="887" y1="405.629" x2="887" y2="427.787" gradientUnits="userSpaceOnUse">
<stop stop-color="#693B93" stop-opacity="0.53"/>
<stop offset="1" stop-color="#693B93"/>
</linearGradient>
<linearGradient id="paint17_linear_2001_2" x1="771.5" y1="493.092" x2="771.5" y2="512.334" gradientUnits="userSpaceOnUse">
<stop stop-color="#693B93" stop-opacity="0.53"/>
<stop offset="1" stop-color="#693B93"/>
</linearGradient>
<linearGradient id="paint18_linear_2001_2" x1="832.795" y1="425.454" x2="832.795" y2="440.906" gradientUnits="userSpaceOnUse">
<stop stop-color="#693B93" stop-opacity="0.53"/>
<stop offset="1" stop-color="#693B93"/>
</linearGradient>
<linearGradient id="paint19_linear_2001_2" x1="724.832" y1="333.863" x2="724.832" y2="341.51" gradientUnits="userSpaceOnUse">
<stop stop-color="#693B93" stop-opacity="0.53"/>
<stop offset="1" stop-color="#693B93"/>
</linearGradient>
<linearGradient id="paint20_linear_2001_2" x1="724.835" y1="330.028" x2="724.835" y2="337.663" gradientUnits="userSpaceOnUse">
<stop stop-color="#693B93" stop-opacity="0.53"/>
<stop offset="1" stop-color="#693B93"/>
</linearGradient>
<linearGradient id="paint21_linear_2001_2" x1="713.479" y1="330.019" x2="713.479" y2="337.672" gradientUnits="userSpaceOnUse">
<stop stop-color="#693B93" stop-opacity="0.53"/>
<stop offset="1" stop-color="#693B93"/>
</linearGradient>
<linearGradient id="paint22_linear_2001_2" x1="713.479" y1="333.87" x2="713.479" y2="341.502" gradientUnits="userSpaceOnUse">
<stop stop-color="#693B93" stop-opacity="0.53"/>
<stop offset="1" stop-color="#693B93"/>
</linearGradient>
<linearGradient id="paint23_linear_2001_2" x1="127" y1="395.133" x2="127" y2="412.626" gradientUnits="userSpaceOnUse">
<stop stop-color="#693B93" stop-opacity="0.53"/>
<stop offset="1" stop-color="#693B93"/>
</linearGradient>
<linearGradient id="paint24_linear_2001_2" x1="34.4234" y1="463.814" x2="34.4234" y2="466.668" gradientUnits="userSpaceOnUse">
<stop stop-color="#693B93" stop-opacity="0.53"/>
<stop offset="1" stop-color="#693B93"/>
</linearGradient>
<linearGradient id="paint25_linear_2001_2" x1="34.5" y1="467.916" x2="34.5" y2="484.146" gradientUnits="userSpaceOnUse">
<stop stop-color="#693B93" stop-opacity="0.53"/>
<stop offset="1" stop-color="#693B93"/>
</linearGradient>
<linearGradient id="paint26_linear_2001_2" x1="193" y1="301.838" x2="193" y2="316.575" gradientUnits="userSpaceOnUse">
<stop stop-color="#693B93" stop-opacity="0.53"/>
<stop offset="1" stop-color="#693B93"/>
</linearGradient>
<linearGradient id="paint27_linear_2001_2" x1="88.287" y1="339.157" x2="88.287" y2="354.102" gradientUnits="userSpaceOnUse">
<stop stop-color="#693B93" stop-opacity="0.53"/>
<stop offset="1" stop-color="#693B93"/>
</linearGradient>
<linearGradient id="paint28_linear_2001_2" x1="138.857" y1="473.268" x2="138.857" y2="491.927" gradientUnits="userSpaceOnUse">
<stop stop-color="#693B93" stop-opacity="0.53"/>
<stop offset="1" stop-color="#693B93"/>
</linearGradient>
</defs>
</svg>
